<svg width="120" height="40" viewBox="0 0 120 40" fill="none" xmlns="http://www.w3.org/2000/svg">
<path d="M54 0H13C5.8203 0 0 5.8203 0 13V27C0 34.1797 5.8203 40 13 40H54C61.1797 40 67 34.1797 67 27V13C67 5.8203 61.1797 0 54 0Z" fill="#14A800"/>
<path d="M11.9398 26.7656V13.8176H7.25977V10.3076H20.7798V13.8176H16.0998V26.7656H11.9398ZM27.4108 13.9736C29.0748 13.9736 30.4181 14.1469 31.4408 14.4936C32.4635 14.8403 33.2088 15.4816 33.6768 16.4176C34.1621 17.3363 34.4048 18.6709 34.4048 20.4216V26.7656H30.6348L30.5048 25.5696H30.4268C30.0975 26.0029 29.5861 26.3496 28.8928 26.6096C28.1995 26.8696 27.2981 26.9996 26.1888 26.9996C23.1901 26.9996 21.6908 25.5956 21.6908 22.7876C21.6908 21.5916 22.0808 20.6556 22.8608 19.9796C23.6581 19.2863 24.9061 18.9396 26.6048 18.9396H30.4528C30.3315 18.2116 30.0195 17.7263 29.5168 17.4836C29.0141 17.2236 28.1561 17.0936 26.9428 17.0936C26.1801 17.0936 25.4261 17.1543 24.6808 17.2756C23.9528 17.3796 23.3115 17.5009 22.7568 17.6396L22.6788 17.5876L22.7048 14.5716C23.0515 14.4676 23.4935 14.3723 24.0308 14.2856C24.5681 14.1816 25.1315 14.1036 25.7208 14.0516C26.3275 13.9996 26.8908 13.9736 27.4108 13.9736ZM27.2548 23.9316C28.3295 23.9316 29.1355 23.8016 29.6728 23.5416C30.2101 23.2643 30.4875 22.8309 30.5048 22.2416V21.5916H27.5668C26.8041 21.5916 26.2668 21.7043 25.9548 21.9296C25.6601 22.1376 25.5128 22.4236 25.5128 22.7876C25.5128 23.2209 25.6688 23.5243 25.9808 23.6976C26.2928 23.8536 26.7175 23.9316 27.2548 23.9316ZM36.5523 23.1776C37.9043 23.5589 39.4036 23.7496 41.0503 23.7496C41.8476 23.7496 42.4456 23.7236 42.8443 23.6716C43.2429 23.6196 43.5116 23.5329 43.6503 23.4116C43.7889 23.2903 43.8583 23.1256 43.8583 22.9176C43.8583 22.6229 43.7456 22.4409 43.5203 22.3716C43.3123 22.3023 42.8876 22.2069 42.2463 22.0856L40.1923 21.6956C38.8749 21.4356 37.9216 21.0283 37.3323 20.4736C36.7603 19.9016 36.4743 19.0523 36.4743 17.9256C36.4743 16.4003 36.9249 15.3603 37.8263 14.8056C38.7449 14.2509 40.2009 13.9736 42.1943 13.9736C43.3903 13.9736 44.4389 14.0429 45.3403 14.1816C46.2589 14.3029 47.0216 14.4589 47.6283 14.6496L47.5763 17.7956L47.4983 17.8736C46.0943 17.4229 44.5603 17.1976 42.8963 17.1976C42.0816 17.1976 41.5096 17.2583 41.1803 17.3796C40.8683 17.4836 40.7123 17.7003 40.7123 18.0296C40.7123 18.2029 40.7556 18.3416 40.8423 18.4456C40.9463 18.5496 41.1716 18.6536 41.5183 18.7576C41.8649 18.8443 42.4109 18.9569 43.1563 19.0956L45.0543 19.4596C46.1116 19.6849 46.8916 20.0576 47.3943 20.5776C47.8969 21.0976 48.1483 21.9209 48.1483 23.0476C48.1483 24.0356 47.9663 24.8243 47.6023 25.4136C47.2383 25.9856 46.6229 26.3929 45.7563 26.6356C44.9069 26.8783 43.7283 26.9996 42.2203 26.9996C41.0763 26.9996 40.0189 26.9476 39.0483 26.8436C38.0949 26.7223 37.2369 26.5836 36.4743 26.4276V23.2296L36.5523 23.1776ZM54.5128 26.7656H50.3528V9.26758H54.5128V19.4596H54.5648L57.8408 14.1036H62.4168V14.2076L58.5688 20.1876V20.2916L63.0408 26.7656H58.2568L54.5908 20.9156L54.5128 20.8896V26.7656Z" fill="white"/>
<path d="M76.2728 26.7656H72.1128V10.3076H76.2728V16.5996H82.5128V10.3076H86.6728V26.7656H82.5128V19.9796H76.2728V26.7656ZM93.9447 26.9996C92.35 26.9996 91.2147 26.5749 90.5387 25.7256C89.8627 24.8763 89.5247 23.6629 89.5247 22.0856V14.1036H93.6847L93.7107 21.0716C93.7107 21.8516 93.8494 22.4063 94.1267 22.7356C94.404 23.0476 94.9674 23.2036 95.8167 23.2036C96.6314 23.2036 97.1774 23.0649 97.4547 22.7876C97.7494 22.4929 97.9054 21.9989 97.9227 21.3056V14.1036H102.083V26.7656H98.1307L97.9227 25.3356H97.8447C97.6194 25.8383 97.16 26.2456 96.4667 26.5576C95.7734 26.8523 94.9327 26.9996 93.9447 26.9996ZM118.041 19.8756C118.041 22.2156 117.564 23.9923 116.611 25.2056C115.657 26.4016 114.037 26.9996 111.749 26.9996C110.466 26.9996 109.27 26.9563 108.161 26.8696C107.069 26.7656 106.107 26.6443 105.275 26.5056L105.197 26.4536V9.26758H109.357V16.0536H109.461C109.703 15.4296 110.102 14.9269 110.657 14.5456C111.229 14.1643 112.035 13.9736 113.075 13.9736C116.385 13.9736 118.041 15.9409 118.041 19.8756ZM109.357 20.3176V23.3596C109.773 23.4289 110.258 23.4636 110.813 23.4636C111.627 23.4636 112.26 23.3943 112.711 23.2556C113.179 23.0996 113.508 22.8049 113.699 22.3716C113.889 21.9383 113.985 21.3143 113.985 20.4996C113.985 19.4769 113.837 18.7229 113.543 18.2376C113.248 17.7523 112.641 17.5096 111.723 17.5096C111.029 17.5096 110.457 17.7263 110.007 18.1596C109.573 18.5756 109.357 19.2949 109.357 20.3176Z" fill="white"/>
</svg>
