<svg width="120" height="40" viewBox="0 0 120 40" fill="none" xmlns="http://www.w3.org/2000/svg">
<rect width="67" height="40" rx="13" fill="#14A800"/>
<path d="M11.94 26.766V13.818H7.26V10.308H20.78V13.818H16.1V26.766H11.94ZM27.411 13.974C29.075 13.974 30.4183 14.1473 31.441 14.494C32.4637 14.8407 33.209 15.482 33.677 16.418C34.1623 17.3367 34.405 18.6713 34.405 20.422V26.766H30.635L30.505 25.57H30.427C30.0977 26.0033 29.5863 26.35 28.893 26.61C28.1997 26.87 27.2983 27 26.189 27C23.1903 27 21.691 25.596 21.691 22.788C21.691 21.592 22.081 20.656 22.861 19.98C23.6583 19.2867 24.9063 18.94 26.605 18.94H30.453C30.3317 18.212 30.0197 17.7267 29.517 17.484C29.0143 17.224 28.1563 17.094 26.943 17.094C26.1803 17.094 25.4263 17.1547 24.681 17.276C23.953 17.38 23.3117 17.5013 22.757 17.64L22.679 17.588L22.705 14.572C23.0517 14.468 23.4937 14.3727 24.031 14.286C24.5683 14.182 25.1317 14.104 25.721 14.052C26.3277 14 26.891 13.974 27.411 13.974ZM27.255 23.932C28.3297 23.932 29.1357 23.802 29.673 23.542C30.2103 23.2647 30.4877 22.8313 30.505 22.242V21.592H27.567C26.8043 21.592 26.267 21.7047 25.955 21.93C25.6603 22.138 25.513 22.424 25.513 22.788C25.513 23.2213 25.669 23.5247 25.981 23.698C26.293 23.854 26.7177 23.932 27.255 23.932ZM36.5525 23.178C37.9045 23.5593 39.4038 23.75 41.0505 23.75C41.8478 23.75 42.4458 23.724 42.8445 23.672C43.2431 23.62 43.5118 23.5333 43.6505 23.412C43.7891 23.2907 43.8585 23.126 43.8585 22.918C43.8585 22.6233 43.7458 22.4413 43.5205 22.372C43.3125 22.3027 42.8878 22.2073 42.2465 22.086L40.1925 21.696C38.8751 21.436 37.9218 21.0287 37.3325 20.474C36.7605 19.902 36.4745 19.0527 36.4745 17.926C36.4745 16.4007 36.9251 15.3607 37.8265 14.806C38.7451 14.2513 40.2011 13.974 42.1945 13.974C43.3905 13.974 44.4391 14.0433 45.3405 14.182C46.2591 14.3033 47.0218 14.4593 47.6285 14.65L47.5765 17.796L47.4985 17.874C46.0945 17.4233 44.5605 17.198 42.8965 17.198C42.0818 17.198 41.5098 17.2587 41.1805 17.38C40.8685 17.484 40.7125 17.7007 40.7125 18.03C40.7125 18.2033 40.7558 18.342 40.8425 18.446C40.9465 18.55 41.1718 18.654 41.5185 18.758C41.8651 18.8447 42.4111 18.9573 43.1565 19.096L45.0545 19.46C46.1118 19.6853 46.8918 20.058 47.3945 20.578C47.8971 21.098 48.1485 21.9213 48.1485 23.048C48.1485 24.036 47.9665 24.8247 47.6025 25.414C47.2385 25.986 46.6231 26.3933 45.7565 26.636C44.9071 26.8787 43.7285 27 42.2205 27C41.0765 27 40.0191 26.948 39.0485 26.844C38.0951 26.7227 37.2371 26.584 36.4745 26.428V23.23L36.5525 23.178ZM54.513 26.766H50.353V9.268H54.513V19.46H54.565L57.841 14.104H62.417V14.208L58.569 20.188V20.292L63.041 26.766H58.257L54.591 20.916L54.513 20.89V26.766Z" fill="white"/>
<path d="M76.2727 26.766H72.1127V10.308H76.2727V16.6H82.5127V10.308H86.6727V26.766H82.5127V19.98H76.2727V26.766ZM93.9446 27C92.3499 27 91.2146 26.5753 90.5386 25.726C89.8626 24.8767 89.5246 23.6633 89.5246 22.086V14.104H93.6846L93.7106 21.072C93.7106 21.852 93.8493 22.4067 94.1266 22.736C94.4039 23.048 94.9673 23.204 95.8166 23.204C96.6313 23.204 97.1773 23.0653 97.4546 22.788C97.7493 22.4933 97.9053 21.9993 97.9226 21.306V14.104H102.083V26.766H98.1306L97.9226 25.336H97.8446C97.6193 25.8387 97.1599 26.246 96.4666 26.558C95.7733 26.8527 94.9326 27 93.9446 27ZM118.041 19.876C118.041 22.216 117.564 23.9927 116.611 25.206C115.657 26.402 114.037 27 111.749 27C110.466 27 109.27 26.9567 108.161 26.87C107.069 26.766 106.107 26.6447 105.275 26.506L105.197 26.454V9.268H109.357V16.054H109.461C109.703 15.43 110.102 14.9273 110.657 14.546C111.229 14.1647 112.035 13.974 113.075 13.974C116.385 13.974 118.041 15.9413 118.041 19.876ZM109.357 20.318V23.36C109.773 23.4293 110.258 23.464 110.813 23.464C111.627 23.464 112.26 23.3947 112.711 23.256C113.179 23.1 113.508 22.8053 113.699 22.372C113.889 21.9387 113.985 21.3147 113.985 20.5C113.985 19.4773 113.837 18.7233 113.543 18.238C113.248 17.7527 112.641 17.51 111.723 17.51C111.029 17.51 110.457 17.7267 110.007 18.16C109.573 18.576 109.357 19.2953 109.357 20.318Z" fill="#116E04"/>
</svg>
